# xmcd
#
# Track frame offsets:
#	150
#	11579
#	24896
#	42470
#	55201
#	73779
#	89292
#	100466
#	112492
#	150633
#	165988
#	178501
#	191202
#	202393
#	217002
#	230657
#	247196
#	274978
#
# Disc length: 4034
#
# Revision: 2
# Processed by: cddbd v1.5.1PL0 Copyright (c) Steve Scherf et al.
# Submitted via: ExactAudioCopy v0.95a3
# Normalized: r0:TDELIM( - ),TSWAP
#
DISCID=140fc012
DTITLE=Various Artist - Simply...the Blues
DYEAR=2003
DGENRE=Blues
TTITLE0=John Lee Hooker - Boom Boom
TTITLE1=Muddy Waters - Mannish Boy
TTITLE2=The Rolling Stones - I Got The Blues
TTITLE3=BB King - Every Day (I Have The Blues)
TTITLE4=Robert Cray - Smoking Gun
TTITLE5=Canned Heat - On The Road Again
TTITLE6=Robert Johnson - Cross Road Blues
TTITLE7=Lightnin' Hopkins - Shotgun Blues
TTITLE8=George Thorogood and The Destroyers - One Bourbon, One Scotch, One Beer
TTITLE9=Johnny Winter - Johnny B. Goode
TTITLE10=Elmore James - Standing At The Crossroads
TTITLE11=Steve Miller Band - Don't Let Nobody Turn You Around
TTITLE12=Charles Brown - Driftin' Blues
TTITLE13=T-Bone Walker - Call It Stormy Monday (But Tuesday Is Just As Bad)
TTITLE14=Stevie Ray Vaughan and Double Trouble - Pride And Joy
TTITLE15=ZZ Top - If I Could Only Flag Her Down
TTITLE16=Gary Moore - Still Got The Blues
TTITLE17=Kenny Wayne Shepherd - Shame, Shame, Shame
EXTD=
EXTT0=
EXTT1=
EXTT2=
EXTT3=
EXTT4=
EXTT5=
EXTT6=
EXTT7=
EXTT8=
EXTT9=
EXTT10=
EXTT11=
EXTT12=
EXTT13=
EXTT14=
EXTT15=
EXTT16=
EXTT17=
PLAYORDER=
